<svg width="129" height="128" viewBox="0 0 129 128" version="1.1" xmlns="http://www.w3.org/2000/svg" xmlns:xlink="http://www.w3.org/1999/xlink">
<title>Component</title>
<desc>Created using Figma</desc>
<g id="Canvas" transform="translate(57 303)">
<g id="Component">
<g id="Rectangle">
<use xlink:href="#path0_fill" transform="matrix(-1 0 0 1 71 -303)" fill="#5C2E91"/>
<use xlink:href="#path1_fill" transform="matrix(-1 0 0 1 71 -303)" fill="#5C2E91"/>
</g>
<g id="Vector (Stroke)">
<use xlink:href="#path2_fill" transform="matrix(-1 0 0 -1 64 -183)" fill="#FFFFFF"/>
</g>
<g id="Vector 2.2">
<use xlink:href="#path3_fill" transform="matrix(-1 0 0 1 -24 -215)" fill="#FFFFFF"/>
</g>
<g id=".NET">
<use xlink:href="#path4_fill" transform="translate(-50.8579 -264.102)" fill="#FFFFFF"/>
<use xlink:href="#path5_fill" transform="translate(-50.8579 -264.102)" fill="#FFFFFF"/>
<use xlink:href="#path6_fill" transform="translate(-50.8579 -264.102)" fill="#FFFFFF"/>
<use xlink:href="#path7_fill" transform="translate(-50.8579 -264.102)" fill="#FFFFFF"/>
</g>
<g id=".NET (Stroke)">
<use xlink:href="#path8_fill" transform="translate(-55.8579 -269.102)" fill="#5C2E91"/>
</g>
</g>
</g>
<defs>
<path id="path0_fill" d="M 0 6C 0 2.68629 2.68629 0 6 0L 122 0C 125.314 0 128 2.68629 128 6L 128 122C 128 125.314 125.314 128 122 128L 6 128C 2.68629 128 0 125.314 0 122L 0 6Z"/>
<path id="path1_fill" d="M 0 6C 0 6 0 6 0 6C 0 2.68629 2.68629 0 6 0C 6 0 6 0 6 0L 122 0C 122 0 122 0 122 0C 125.314 0 128 2.68629 128 6C 128 6 128 6 128 6L 128 122C 128 122 128 122 128 122C 128 125.314 125.314 128 122 128C 122 128 122 128 122 128L 6 128C 6 128 6 128 6 128C 2.68629 128 0 125.314 0 122C 0 122 0 122 0 122L 0 6Z"/>
<path id="path2_fill" fill-rule="evenodd" d="M 55.3313 0L 90 0L 90 14L 65.2778 14L 31.4707 111L 0 111L 0 97L 21.5242 97L 55.3313 0Z"/>
<path id="path3_fill" d="M 0 0L 29 32L 0 32L 0 0Z"/>
<path id="path4_fill" d="M 4.99512 30.3198C 6.42741 30.3198 7.618 30.7495 8.56689 31.6089C 9.51579 32.4504 9.99023 33.5335 9.99023 34.8584C 9.99023 36.1833 9.51579 37.2754 8.56689 38.1348C 7.618 38.9762 6.42741 39.397 4.99512 39.397C 3.54492 39.397 2.34538 38.9673 1.39648 38.1079C 0.465495 37.2485 0 36.1654 0 34.8584C 0 33.5514 0.465495 32.4683 1.39648 31.6089C 2.34538 30.7495 3.54492 30.3198 4.99512 30.3198Z"/>
<path id="path5_fill" d="M 49.1187 39.1016L 39.7461 39.1016L 25.8887 14.7705L 25.8887 39.1016L 16.4624 39.1016L 16.4624 0L 25.8887 0L 39.7192 24.3311L 39.7192 0L 49.1187 0L 49.1187 39.1016Z"/>
<path id="path6_fill" d="M 79.3311 22.5317L 64.5068 22.5317L 64.5068 31.8506L 82.0166 31.8506L 82.0166 39.1016L 55.0806 39.1016L 55.0806 0L 82.0703 0L 82.0703 7.27783L 64.5068 7.27783L 64.5068 15.5225L 79.3311 15.5225L 79.3311 22.5317Z"/>
<path id="path7_fill" d="M 117.09 7.27783L 105.354 7.27783L 105.354 39.1016L 95.9277 39.1016L 95.9277 7.27783L 84.4067 7.27783L 84.4067 0L 117.09 0L 117.09 7.27783Z"/>
<path id="path8_fill" fill-rule="evenodd" d="M 13.5669 43.1348C 12.618 43.9762 11.4274 44.397 9.99512 44.397C 8.54492 44.397 7.34538 43.9673 6.39648 43.1079C 5.46549 42.2485 5 41.1654 5 39.8584C 5 38.5514 5.46549 37.4683 6.39648 36.6089C 7.34538 35.7495 8.54492 35.3198 9.99512 35.3198C 11.4274 35.3198 12.618 35.7495 13.5669 36.6089C 14.5158 37.4504 14.9902 38.5335 14.9902 39.8584C 14.9902 41.1833 14.5158 42.2754 13.5669 43.1348ZM 16.4624 47.2298C 14.5629 48.7369 12.307 49.397 9.99512 49.397C 7.48112 49.397 5.03163 48.6176 3.04009 46.8139L 3.02251 46.798L 3.00508 46.7819C 1.0126 44.9427 0 42.511 0 39.8584C 0 37.2058 1.0126 34.7741 3.00508 32.9349L 3.02251 32.9188L 3.04009 32.9029C 5.03163 31.0992 7.48112 30.3198 9.99512 30.3198C 12.3174 30.3198 14.5717 30.994 16.4624 32.5099L 16.4624 0L 33.7978 0L 39.7192 10.4171L 39.7192 0L 127.09 0L 127.09 17.2778L 115.354 17.2778L 115.354 49.1016L 95.9277 49.1016L 95.9277 17.2778L 89.3311 17.2778L 89.3311 31.8506L 92.0166 31.8506L 92.0166 49.1016L 41.8397 49.1016L 35.8887 38.6527L 35.8887 49.1016L 16.4624 49.1016L 16.4624 47.2298ZM 30.8887 19.7705L 44.7461 44.1016L 54.1187 44.1016L 54.1187 5L 44.7192 5L 44.7192 29.3311L 30.8887 5L 21.4624 5L 21.4624 44.1016L 30.8887 44.1016L 30.8887 19.7705ZM 69.5068 36.8506L 69.5068 27.5317L 84.3311 27.5317L 84.3311 20.5225L 69.5068 20.5225L 69.5068 12.2778L 87.0703 12.2778L 87.0703 5L 60.0806 5L 60.0806 44.1016L 87.0166 44.1016L 87.0166 36.8506L 69.5068 36.8506ZM 100.928 12.2778L 100.928 44.1016L 110.354 44.1016L 110.354 12.2778L 122.09 12.2778L 122.09 5L 89.4067 5L 89.4067 12.2778L 100.928 12.2778Z"/>
</defs>
</svg>
