<?xml version="1.0" encoding="utf-8"?>
<!-- Generator: Adobe Illustrator 21.1.0, SVG Export Plug-In . SVG Version: 6.00 Build 0)  -->
<svg version="1.1" id="レイヤー_1" xmlns="http://www.w3.org/2000/svg" xmlns:xlink="http://www.w3.org/1999/xlink" x="0px"
	 y="0px" viewBox="0 0 128 128" style="enable-background:new 0 0 128 128;" xml:space="preserve">
<style type="text/css">
	.st0{fill:#5C2E91;}
	.st1{fill:#FFFFFF;}
</style>
<title>Component</title>
<desc>Created using Figma</desc>
<g id="Canvas" transform="translate(57 303)">
	<g id="Component">
		<g id="Rectangle">
			<g transform="matrix(-1 0 0 1 71 -303)">
				<path id="path0_fill" class="st0" d="M65-303H-51c-3.3,0-6,2.7-6,6v116c0,3.3,2.7,6,6,6H65c3.3,0,6-2.7,6-6v-116
					C71-300.3,68.3-303,65-303z"/>
			</g>
			<g transform="matrix(-1 0 0 1 71 -303)">
				<path id="path1_fill" class="st0" d="M71-297L71-297c0-3.3-2.7-6-6-6l0,0H-51l0,0c-3.3,0-6,2.7-6,6l0,0v116l0,0c0,3.3,2.7,6,6,6
					l0,0H65l0,0c3.3,0,6-2.7,6-6l0,0V-297z"/>
			</g>
		</g>
		<g id="Vector__x28_Stroke_x29_">
			<g transform="matrix(-1 0 0 -1 64 -183)">
				<path id="path2_fill" class="st1" d="M8.7-183H-26v-14h24.7l33.8-97H64v14H42.5L8.7-183z"/>
			</g>
		</g>
		<g id="Vector_2.2">
			<g transform="matrix(-1 0 0 1 -24 -215)">
				<path id="path3_fill" class="st1" d="M-24-215l-29,32h29V-215z"/>
			</g>
		</g>
		<rect x="-43" y="-259" class="st0" width="88" height="32"/>
		<g id="_x2E_NET">
			<g transform="translate(-50.8579 -264.102)">
				<g id="path4_fill">
					<path class="st1" d="M-45.8-222.2c-2,0-3.6-0.6-4.9-1.8c-1.3-1.2-2.1-2.9-2.1-4.7s0.7-3.5,2-4.7c1.3-1.2,3-1.8,5-1.8
						c1.9,0,3.6,0.6,4.9,1.8c1.4,1.2,2.1,2.8,2.1,4.7c0,1.9-0.7,3.5-2.1,4.8C-42.3-222.8-43.9-222.2-45.8-222.2z"/>
					<path class="st0" d="M-45.8-233.3c1.4,0,2.6,0.4,3.6,1.3c0.9,0.8,1.4,1.9,1.4,3.2s-0.5,2.4-1.4,3.3c-0.9,0.8-2.1,1.3-3.6,1.3
						c-1.5,0-2.6-0.4-3.6-1.3c-0.9-0.9-1.4-1.9-1.4-3.2s0.5-2.4,1.4-3.2C-48.5-232.9-47.3-233.3-45.8-233.3 M-45.8-237.3
						c-2.4,0-4.6,0.8-6.3,2.3c-1.8,1.6-2.7,3.8-2.7,6.2s0.9,4.6,2.7,6.2c1.7,1.5,3.9,2.3,6.3,2.3c2.4,0,4.6-0.8,6.2-2.3
						c1.8-1.7,2.8-3.8,2.8-6.3c0-2.5-1-4.6-2.8-6.2C-41.3-236.5-43.4-237.3-45.8-237.3L-45.8-237.3z"/>
				</g>
			</g>
			<g transform="translate(-50.8579 -264.102)">
				<g id="path5_fill">
					<polygon class="st1" points="-13,-223 -23,-241.4 -23,-223 -36,-223 -36,-266 -23.1,-266 -13,-247.6 -13,-266 0,-266 0,-223 
											"/>
					<path class="st0" d="M-2-264v39h-9.8L-25-249.3v24.3h-9v-39h9.8l13.2,24.3V-264H-2 M2-268h-4h-9h-4v4v8.6l-5.7-10.5l-1.1-2.1
						h-2.4H-34h-4v4v39v4h4h9h4v-4v-8.6l5.7,10.5l1.1,2.1h2.4H-2h4v-4v-39V-268L2-268z"/>
				</g>
			</g>
			<g transform="translate(-50.8579 -264.102)">
				<g id="path6_fill">
					<polygon class="st1" points="2,-223 2,-265 33,-265 33,-254 15,-254 15,-250 30,-250 30,-239 15,-239 15,-234 33,-234 33,-223 
											"/>
					<path class="st0" d="M31-263v7H13v8h15v7H13v9h18v7H4v-38H31 M35-267h-4H4H0v4v38v4h4h27h4v-4v-7v-4h-4H17v-1h11h4v-4v-7v-4h-4
						H17h14h4v-4v-7V-267L35-267z"/>
				</g>
			</g>
			<g transform="translate(-50.8579 -264.102)">
				<g id="path7_fill">
					<polygon class="st1" points="43,-222 43,-254 31,-254 31,-265 68,-265 68,-254 56,-254 56,-222 					"/>
					<path class="st0" d="M66-263v7H54v32h-9v-32H33v-7H66 M70-267h-4H33h-4v4v7v4h4h8v28v4h4h9h4v-4v-28h8h4v-4v-7V-267L70-267z"/>
				</g>
			</g>
		</g>
	</g>
</g>
</svg>
